<svg xmlns="http://www.w3.org/2000/svg">
    <defs>
        <symbol id="icon-flower" viewBox="0 0 150.0 150.0">
            <svg xmlns="http://www.w3.org/2000/svg" version="1.1" viewBox="-5.0 -10.0 110.0 135.0">
                <path d="m89.234 46.465c0-9.8711-8.0312-17.898-17.898-17.898-1.1016 0-2.1914 0.10938-3.2617 0.30859-0.96094-8.9805-8.5703-16-17.801-16-9.2383 0-16.871 7.0391-17.801 16.039-1.1484-0.23047-2.3281-0.35156-3.5195-0.35156-9.8711 0-17.891 8.0312-17.891 17.898 0 6.3789 3.3281 12.141 8.6797 15.34-1.0703 2.3203-1.6211 4.8398-1.6211 7.4297 0 9.8711 8.0312 17.891 17.891 17.891 5.2383 0 10.141-2.2812 13.5-6.1406 3.3594 3.8594 8.2695 6.1406 13.5 6.1406 9.8594 0 17.891-8.0195 17.891-17.891 0-2.3594-0.46875-4.6914-1.3711-6.8594 5.9023-3.0156 9.7031-9.1055 9.7031-15.906zm-13.902 12.289c-0.73047 0.23828-1.3086 0.80078-1.5703 1.5117-0.26172 0.71875-0.17969 1.5195 0.21875 2.1719 1.2812 2.0508 1.9492 4.3984 1.9492 6.8008 0 7.1289-5.8008 12.93-12.922 12.93-4.7109 0-9.0508-2.5703-11.32-6.6914-0.44141-0.80078-1.2695-1.2891-2.1797-1.2891-0.89844 0-1.7383 0.49219-2.1719 1.2891-2.2812 4.1211-6.6211 6.6914-11.328 6.6914-7.1211 0-12.922-5.8008-12.922-12.93 0-2.5391 0.73828-5 2.1406-7.1211 0.41016-0.62109 0.51953-1.3984 0.30078-2.1094-0.21875-0.71094-0.73828-1.2891-1.4414-1.5703-4.8984-1.9883-8.0586-6.6914-8.0586-11.969 0-7.1289 5.7891-12.93 12.922-12.93 1.7383 0 3.4297 0.33984 5.0195 1.0117 0.80078 0.33984 1.7305 0.23047 2.4297-0.28125 0.71094-0.51953 1.0898-1.3711 1.0117-2.2383-0.050781-0.44922-0.070312-0.85938-0.070312-1.25 0-7.1289 5.8008-12.93 12.93-12.93 7.1289 0 12.93 5.8008 12.93 12.93 0 0.39062-0.03125 0.78125-0.058594 1.1602-0.078125 0.85938 0.28906 1.6992 0.98828 2.2188 0.69141 0.51953 1.6016 0.64062 2.3984 0.32031 1.5508-0.62109 3.1719-0.94141 4.8008-0.94141 7.1289 0 12.93 5.8008 12.93 12.93 0.003907 5.6172-3.5859 10.555-8.9258 12.285z"/>
                <path d="m49.504 40.305c-6.7891 0-12.309 5.5312-12.309 12.309 0 6.7891 5.5195 12.309 12.309 12.309 6.7891 0 12.309-5.5195 12.309-12.309 0-6.7773-5.5195-12.309-12.309-12.309zm0 19.648c-4.0508 0-7.3398-3.2891-7.3398-7.3398 0-4.0391 3.2891-7.3398 7.3398-7.3398 4.0508 0 7.3398 3.3008 7.3398 7.3398 0 4.0508-3.293 7.3398-7.3398 7.3398z"/>
            </svg>
        </symbol>

        <symbol id="icon-bee" viewBox="0 0 100 125">
            <path d="M68.8,31.6c-0.5,0-1,0.2-1.3,0.6c-0.7,0.7-0.7,1.9,0,2.7c0.4,0.4,0.9,0.6,1.3,0.6c0.5,0,1-0.2,1.3-0.6  c0.7-0.7,0.7-1.9,0-2.7C69.7,31.8,69.2,31.6,68.8,31.6z"/><path d="M76.7,28.3c-2.6-2.6-6-3.9-9.4-3.9c-1.8,0-3.5,0.4-5.2,1.1v-3c0-4.6-3.7-8.3-8.3-8.3s-8.3,3.7-8.3,8.3v4.7h-4.7  c-4.6,0-8.3,3.7-8.3,8.3s3.7,8.3,8.3,8.3h3.6c-1,3.1-0.9,6.5,0.4,9.5v6.9h6.9c1.7,0.7,3.5,1.1,5.3,1.1c3.4,0,6.8-1.3,9.4-3.9  L76.7,47C81.9,41.8,81.9,33.4,76.7,28.3z M65.4,52L53,39.6l3.2-3.2l12.4,12.4L65.4,52z M49.9,22.4c0-2.1,1.7-3.9,3.9-3.9  c2.1,0,3.9,1.7,3.9,3.9v4.7h-7.7V22.4z M40.7,39.4c-2.1,0-3.9-1.7-3.9-3.9c0-2.1,1.7-3.9,3.9-3.9h13.8l-7,7  c-0.2,0.2-0.4,0.5-0.6,0.7H40.7z M56.9,56.8c-2.3,0-4.6-0.9-6.2-2.6c-2.8-2.8-3.3-7-1.6-10.3L61,55.8C59.8,56.5,58.4,56.8,56.9,56.8  z M73.5,43.9l-0.9,0.9L60.3,32.3l0.9-0.9c1.7-1.7,3.9-2.6,6.2-2.6c2.3,0,4.6,0.9,6.2,2.6c1.7,1.7,2.6,3.9,2.6,6.2  C76.1,40,75.2,42.2,73.5,43.9z"/><path d="M20.6,81.6L20,82.1c-0.9,0.9-0.9,2.3,0,3.2c0.4,0.4,1,0.7,1.6,0.7c0.6,0,1.1-0.2,1.6-0.7l0.5-0.5c0.9-0.9,0.9-2.3,0-3.2  C22.9,80.7,21.5,80.7,20.6,81.6z"/><path d="M26.4,75.7l-0.5,0.5c-0.9,0.9-0.9,2.3,0,3.2c0.4,0.4,1,0.7,1.6,0.7s1.1-0.2,1.6-0.7l0.5-0.5c0.9-0.9,0.9-2.3,0-3.2  C28.7,74.9,27.3,74.9,26.4,75.7z"/><path d="M38,64.1l-0.5,0.5c-0.9,0.9-0.9,2.3,0,3.2c0.4,0.4,1,0.7,1.6,0.7c0.6,0,1.1-0.2,1.6-0.7l0.5-0.5c0.9-0.9,0.9-2.3,0-3.2  C40.3,63.2,38.9,63.2,38,64.1z"/><path d="M32.2,69.9l-0.5,0.5c-0.9,0.9-0.9,2.3,0,3.2c0.4,0.4,1,0.7,1.6,0.7c0.6,0,1.1-0.2,1.6-0.7l0.5-0.5c0.9-0.9,0.9-2.3,0-3.2  C34.5,69,33.1,69,32.2,69.9z"/>
        </symbol>
    </defs>
</svg>